HIERARCHY
ROOT hip
{
  OFFSET 0 0 0
  CHANNELS 6 Xposition Yposition Zposition Zrotation Yrotation Xrotation
  JOINT abdomen
  {
    OFFSET 0 20.6881 -0.73152
    CHANNELS 3 Zrotation Xrotation Yrotation
    JOINT chest
    {
      OFFSET 0 11.7043 -0.48768
      CHANNELS 3 Zrotation Xrotation Yrotation
      JOINT neck
      {
        OFFSET 0 22.1894 -2.19456
        CHANNELS 3 Zrotation Xrotation Yrotation
        JOINT head
        {
          OFFSET -0.24384 7.07133 1.2192
          CHANNELS 3 Zrotation Xrotation Yrotation
          JOINT leftEye
          {
            OFFSET 4.14528 8.04674 8.04672
            CHANNELS 3 Zrotation Xrotation Yrotation
            End Site
            {
              OFFSET 1 0 0
            }
          }
          JOINT rightEye
          {
            OFFSET -3.6576 8.04674 8.04672
            CHANNELS 3 Zrotation Xrotation Yrotation
            End Site
            {
              OFFSET 1 0 0
            }
          }
        }
      }
      JOINT rCollar
      {
        OFFSET -2.68224 19.2634 -4.8768
        CHANNELS 3 Zrotation Xrotation Yrotation
        JOINT rShldr
        {
          OFFSET -8.77824 -1.95073 1.46304
          CHANNELS 3 Zrotation Xrotation Yrotation
          JOINT rForeArm
          {
            OFFSET -28.1742 -1.7115 0.48768
            CHANNELS 3 Zrotation Xrotation Yrotation
            JOINT rHand
            {
              OFFSET -22.5879 0.773209 7.07136
              CHANNELS 3 Zrotation Xrotation Yrotation
              JOINT rThumb1
              {
                OFFSET -1.2192 -0.487915 3.41376
                CHANNELS 3 Zrotation Xrotation Yrotation
                JOINT rThumb2
                {
                  OFFSET -3.37035 -0.52449 3.41376
                  CHANNELS 3 Zrotation Xrotation Yrotation
                  End Site
                  {
                    OFFSET -1.78271 -1.18214 1.43049
                  }
                }
              }
              JOINT rIndex1
              {
                OFFSET -7.75947 0.938293 5.60832
                CHANNELS 3 Zrotation Xrotation Yrotation
                JOINT rIndex2
                {
                  OFFSET -2.54057 -0.884171 1.56538
                  CHANNELS 3 Zrotation Xrotation Yrotation
                  End Site
                  {
                    OFFSET -1.62519 -0.234802 1.16502
                  }
                }
              }
              JOINT rMid1
              {
                OFFSET -8.24714 1.18213 3.41376
                CHANNELS 3 Zrotation Xrotation Yrotation
                JOINT rMid2
                {
                  OFFSET -3.10165 -0.590103 1.0647
                  CHANNELS 3 Zrotation Xrotation Yrotation
                  End Site
                  {
                    OFFSET -2.48547 -0.328903 0.83742
                  }
                }
              }
              JOINT rRing1
              {
                OFFSET -8.82822 0.546677 1.51678
                CHANNELS 3 Zrotation Xrotation Yrotation
                JOINT rRing2
                {
                  OFFSET -2.60934 -0.819778 -0.0198488
                  CHANNELS 3 Zrotation Xrotation Yrotation
                  End Site
                  {
                    OFFSET -2.33842 -0.294052 0.168128
                  }
                }
              }
              JOINT rPinky1
              {
                OFFSET -8.27202 -0.0477905 -0.4584
                CHANNELS 3 Zrotation Xrotation Yrotation
                JOINT rPinky2
                {
                  OFFSET -1.82734 -0.647385 -0.700984
                  CHANNELS 3 Zrotation Xrotation Yrotation
                  End Site
                  {
                    OFFSET -1.69225 -0.51767 -0.607171
                  }
                }
              }
            }
          }
        }
      }
      JOINT lCollar
      {
        OFFSET 2.68224 19.2634 -4.8768
        CHANNELS 3 Zrotation Xrotation Yrotation
        JOINT lShldr
        {
          OFFSET 8.77824 -1.95073 1.46304
          CHANNELS 3 Zrotation Xrotation Yrotation
          JOINT lForeArm
          {
            OFFSET 28.1742 -1.7115 0.48768
            CHANNELS 3 Zrotation Xrotation Yrotation
            JOINT lHand
            {
              OFFSET 22.5879 0.773209 7.07136
              CHANNELS 3 Zrotation Xrotation Yrotation
              JOINT lThumb1
              {
                OFFSET 1.2192 -0.487915 3.41376
                CHANNELS 3 Zrotation Xrotation Yrotation
                JOINT lThumb2
                {
                  OFFSET 3.37035 -0.52449 3.41376
                  CHANNELS 3 Zrotation Xrotation Yrotation
                  End Site
                  {
                    OFFSET 1.78271 -1.18214 1.43049
                  }
                }
              }
              JOINT lIndex1
              {
                OFFSET 7.75947 0.938293 5.60832
                CHANNELS 3 Zrotation Xrotation Yrotation
                JOINT lIndex2
                {
                  OFFSET 2.54057 -0.884171 1.56538
                  CHANNELS 3 Zrotation Xrotation Yrotation
                  End Site
                  {
                    OFFSET 1.62519 -0.234802 1.16502
                  }
                }
              }
              JOINT lMid1
              {
                OFFSET 8.24714 1.18213 3.41376
                CHANNELS 3 Zrotation Xrotation Yrotation
                JOINT lMid2
                {
                  OFFSET 3.10165 -0.590103 1.0647
                  CHANNELS 3 Zrotation Xrotation Yrotation
                  End Site
                  {
                    OFFSET 2.48547 -0.328903 0.83742
                  }
                }
              }
              JOINT lRing1
              {
                OFFSET 8.82822 0.546677 1.51678
                CHANNELS 3 Zrotation Xrotation Yrotation
                JOINT lRing2
                {
                  OFFSET 2.60934 -0.819778 -0.0198488
                  CHANNELS 3 Zrotation Xrotation Yrotation
                  End Site
                  {
                    OFFSET 2.33842 -0.294052 0.168128
                  }
                }
              }
              JOINT lPinky1
              {
                OFFSET 8.27202 -0.0477905 -0.4584
                CHANNELS 3 Zrotation Xrotation Yrotation
                JOINT lPinky2
                {
                  OFFSET 1.82734 -0.647385 -0.700984
                  CHANNELS 3 Zrotation Xrotation Yrotation
                  End Site
                  {
                    OFFSET 1.69225 -0.51767 -0.607171
                  }
                }
              }
            }
          }
        }
      }
    }
  }
  JOINT rButtock
  {
    OFFSET -8.77824 4.35084 1.2192
    CHANNELS 3 Zrotation Xrotation Yrotation
    JOINT rThigh
    {
      OFFSET 0 -1.70687 -2.19456
      CHANNELS 3 Zrotation Xrotation Yrotation
      JOINT rShin
      {
        OFFSET 0 -36.8199 0.73152
        CHANNELS 3 Zrotation Xrotation Yrotation
        JOINT rFoot
        {
          OFFSET 0.73152 -45.1104 -5.12064
          CHANNELS 3 Zrotation Xrotation Yrotation
          End Site
          {
            OFFSET -1.1221 -3.69964 12.103
          }
        }
      }
    }
  }
  JOINT lButtock
  {
    OFFSET 8.77824 4.35084 1.2192
    CHANNELS 3 Zrotation Xrotation Yrotation
    JOINT lThigh
    {
      OFFSET 0 -1.70687 -2.19456
      CHANNELS 3 Zrotation Xrotation Yrotation
      JOINT lShin
      {
        OFFSET 0 -36.8199 0.73152
        CHANNELS 3 Zrotation Xrotation Yrotation
        JOINT lFoot
        {
          OFFSET -0.73152 -45.1104 -5.12064
          CHANNELS 3 Zrotation Xrotation Yrotation
          End Site
          {
            OFFSET 1.1221 -3.69964 12.103
          }
        }
      }
    }
  }
}
MOTION
Frames:	4
Frame Time:	0.03333
0.0 0.0 0.0 0.0 0.0 0.0 0.0 0.0 0.0 0.0 0.0 0.0 0.0 0.0 0.0 0.0 0.0 0.0 0.0 0.0 0.0 0.0 0.0 0.0 0.0 0.0 0.0 0.0 0.0 0.0 0.0 0.0 0.0 0.0 0.0 0.0 0.0 0.0 0.0 0.0 0.0 0.0 0.0 0.0 0.0 0.0 0.0 0.0 0.0 0.0 0.0 0.0 0.0 0.0 0.0 0.0 0.0 0.0 0.0 0.0 0.0 0.0 0.0 0.0 0.0 0.0 0.0 0.0 0.0 0.0 0.0 0.0 0.0 0.0 0.0 0.0 0.0 0.0 0.0 0.0 0.0 0.0 0.0 0.0 0.0 0.0 0.0 0.0 0.0 0.0 0.0 0.0 0.0 0.0 0.0 0.0 0.0 0.0 0.0 0.0 0.0 0.0 0.0 0.0 0.0 0.0 0.0 0.0 0.0 0.0 0.0 0.0 0.0 0.0 0.0 0.0 0.0 0.0 0.0 0.0 0.0 0.0 0.0 0.0 0.0 0.0 0.0 0.0 0.0 0.0 0.0 0.0
0.0164 62.1526 -0.0611 -1.427874 54.421153 -2.027587 -1.189767 1.632127 58.233502 -4.171632 7.984186 24.230077 -9.742854 -12.245194 -72.644744 40.042333 -13.124026 57.358944 -110.457861 -6.100156 -8.777539 145.292143 -3.803497 12.13022 -80.830719 -53.684076 -179.642256 -163.146728 0.01643 179.100643 93.330583 -80.092772 -112.258567 -162.23089 49.565517 68.452931 -177.636417 9.880613 55.150587 -147.418296 56.773558 -76.179013 -164.64059 -36.537696 -139.19628 3.006819 39.959029 -141.544548 116.075628 42.293861 -94.388101 117.456346 -72.211665 10.048757 8.280507 7.388156 -87.407595 -149.613148 40.573459 153.778059 -173.72651 30.026088 -72.352682 -127.038329 -26.475359 -119.49198 -74.98026 14.996899 -13.738419 163.294254 -63.678362 177.217448 178.687708 -27.502284 23.084178 13.051112 54.103068 46.313431 -2.518754 -16.102409 -20.004419 29.062972 3.578208 -29.401599 179.441748 -3.482526 -100.620326 1.792026 -45.886809 54.67855 -17.22173 -32.955333 -71.905792 178.086096 58.843308 61.955185 -104.729579 5.706432 57.908098 -0.039664 56.438545 3.558924 -91.868973 2.081836 70.579568 29.662281 -45.657473 11.073417 46.591103 33.724794 107.251149 -13.30793 53.625448 -29.75938 7.249642 0.063931 104.345311 -67.941301 58.870079 84.482456 33.6479 -35.605734 48.823792 2.271263 48.13704 -0.0 -6.142496 -0.503744 -98.292193 -71.655541 28.76382 80.717753
0.338 64.7156 0.32039999999999996 -3.096961 3.927798 -5.042648 -7.053611 18.249437 1.938659 6.970181 -4.446233 -4.990864 5.227174 9.451782 83.720122 -25.20797 4.722235 -108.938634 36.102331 2.522281 7.72877 -21.452301 -1.909164 10.053806 3.092116 3.515306 -10.080275 55.066709 18.356601 5.32108 -2.809295 -13.843846 58.418893 -0.085659 11.249988 -5.321352 90.012744 -51.956597 44.674882 -135.50969 -14.50741 111.851128 -163.380952 -31.439164 113.645486 -174.970231 -35.838614 55.086936 -52.910403 43.528769 36.25261 -50.340858 75.650151 59.963758 16.656429 -61.745975 7.350409 -98.112692 82.645935 89.842095 -119.790931 30.014594 179.035642 48.137874 -5.559057 22.273632 154.759251 -8.548977 -151.842516 43.71446 -34.550951 20.66406 148.707661 -25.380325 90.361511 3.913914 -27.848704 6.640199 71.127659 42.819655 -51.55336 123.497718 -1.558189 -95.760092 152.919144 -12.435425 -117.87549 84.217556 50.528454 -35.854604 161.971211 -10.963668 -146.954812 160.435607 2.683585 -160.028085 65.758888 51.987427 -99.850818 103.791591 -46.430904 142.629118 -53.819484 -31.041251 -66.161592 69.10322 38.979923 23.529595 -142.788449 68.113407 -28.544335 143.026337 2.649014 -87.571345 -74.302911 0.869317 -170.622123 -2.66858 26.88809 -83.368547 -22.333398 -14.982517 -17.500746 39.580035 17.101103 -0.0 -16.534865 41.033462 55.781972 -147.993239 -14.487139 8.499877
0.6668000000000001 71.05 1.6466 -6.63019 15.825874 -14.862537 -13.142753 25.17268 -80.436657 7.725721 15.224212 58.227538 -36.421671 13.690138 -55.53373 45.162125 18.38954 34.89628 2.696349 0.242099 10.259524 7.520053 0.5371 8.158891 5.437406 -44.570133 -1.864025 -125.371479 -17.803376 -142.086978 86.964006 5.479698 -121.841694 -166.987582 61.858029 140.704764 -17.615073 0.914652 -19.844479 -86.092989 -12.735549 80.892925 11.061114 -21.504425 -15.672954 30.678289 -40.071222 46.981725 -10.924277 -2.96622 -3.136119 -14.284066 -60.036883 -32.8763 -123.96361 8.978409 168.700122 55.251287 24.804132 -11.704495 -37.181979 -43.101131 -9.320604 36.862179 8.642233 -21.284887 143.651271 -4.615507 -161.037002 171.176779 -60.732327 137.970742 -179.110981 77.131521 -59.573645 166.064494 1.938992 -129.794765 -85.023171 -30.656351 -24.137257 79.659109 -55.206787 70.791557 90.56835 11.262762 -53.819831 -9.192067 13.127411 -61.303457 144.105329 30.705022 -112.542563 -32.56859 -54.348548 -41.874021 93.838795 57.540814 -95.452483 -36.212693 -42.200145 -38.295382 86.69676 4.303381 -130.557058 -83.721751 -38.495876 -46.088521 -49.131483 12.07014 -22.574582 28.769405 -88.45501 -29.539126 -99.564797 60.235563 -2.240754 -2.774147 25.087921 114.13827 22.357844 6.266717 43.84376 -6.047004 3.781641 119.309996 32.803823 -42.929951 77.721802 142.4183 -3.692397 -171.505535
